<svg width="100" height="100" viewBox="0 0 100 100" fill="none" xmlns="http://www.w3.org/2000/svg">
<circle cx="50" cy="50" r="50" fill="#1E3A8A"/>
<path d="M49.3828 65.1484C45 65.1484 41.0508 63.3672 38.1445 60.5312H49.3828L42.457 53.6055H24V72.0625L30.9258 79V66.2969C35.5547 71.2422 42.082 74.3828 49.3828 74.3828C62.625 74.3828 73.4883 64.2461 74.6484 51.3086H65.2969C64.1719 59.125 57.5156 65.1484 49.3828 65.1484ZM67.8516 19V31.7031C63.2227 26.7578 56.6953 23.6172 49.3945 23.6172C36.1406 23.6172 25.2891 33.7539 24.1172 46.6914H33.4688C34.5938 38.875 41.2617 32.8398 49.3945 32.8398C53.7773 32.8398 57.7266 34.6211 60.6328 37.457H49.3945L56.3203 44.3828H74.7773V25.9258L67.8516 19Z" fill="white"/>
</svg>
