<svg width="58" height="56" viewBox="0 0 58 56" fill="none" xmlns="http://www.w3.org/2000/svg">
<ellipse cx="29" cy="28" rx="29" ry="28" fill="#0EA5E9"/>
<path d="M4.275 41C4.275 37.08 4.275 33.1133 4.275 29.1C4.275 25.0867 4.275 21.12 4.275 17.2C5.72167 17.2 7.16833 17.2 8.615 17.2C10.085 17.2 11.5317 17.2 12.955 17.2C14.7517 17.2 16.315 17.55 17.645 18.25C18.975 18.9267 20.0133 19.8833 20.76 21.12C21.5067 22.3567 21.88 23.8033 21.88 25.46C21.88 27.0933 21.5067 28.5283 20.76 29.765C20.0367 31.0017 19.0333 31.9583 17.75 32.635C16.49 33.3117 15.055 33.65 13.445 33.65C12.9317 33.65 12.4183 33.65 11.905 33.65C11.415 33.65 10.9133 33.65 10.4 33.65C10.4 34.8633 10.4 36.0883 10.4 37.325C10.4 38.5617 10.4 39.7867 10.4 41C9.39667 41 8.38167 41 7.355 41C6.32833 41 5.30167 41 4.275 41ZM12.955 22.695C12.535 22.695 12.1033 22.695 11.66 22.695C11.24 22.695 10.82 22.695 10.4 22.695C10.4 23.6283 10.4 24.5733 10.4 25.53C10.4 26.4633 10.4 27.3967 10.4 28.33C10.8667 28.33 11.345 28.33 11.835 28.33C12.3483 28.33 12.8383 28.33 13.305 28.33C14.0283 28.33 14.6117 28.0617 15.055 27.525C15.5217 26.9883 15.755 26.3233 15.755 25.53C15.755 24.7133 15.51 24.0367 15.02 23.5C14.53 22.9633 13.8417 22.695 12.955 22.695ZM29.3271 17.2C29.8637 19.6033 30.4004 22.0417 30.9371 24.515C31.4737 26.9883 31.9987 29.4383 32.5121 31.865C33.0487 29.4383 33.5854 26.9883 34.1221 24.515C34.6821 22.0417 35.2187 19.6033 35.7321 17.2C36.6421 17.2 37.5637 17.2 38.4971 17.2C39.4304 17.2 40.3521 17.2 41.2621 17.2C41.8221 19.6033 42.3821 22.03 42.9421 24.48C43.5021 26.93 44.0621 29.3683 44.6221 31.795C45.1587 29.3683 45.6837 26.93 46.1971 24.48C46.7337 22.03 47.2587 19.6033 47.7721 17.2C48.7054 17.2 49.6387 17.2 50.5721 17.2C51.5287 17.2 52.4737 17.2 53.4071 17.2C52.5437 21.12 51.6804 25.0867 50.8171 29.1C49.9537 33.1133 49.0904 37.08 48.2271 41C47.0837 41 45.9171 41 44.7271 41C43.5604 41 42.3937 41 41.2271 41C40.7371 38.83 40.2354 36.6483 39.7221 34.455C39.2087 32.2383 38.7071 30.045 38.2171 27.875C37.7504 30.045 37.2721 32.2383 36.7821 34.455C36.2921 36.6483 35.8137 38.83 35.3471 41C34.2037 41 33.0487 41 31.8821 41C30.7387 41 29.5954 41 28.4521 41C27.5887 37.08 26.7254 33.1133 25.8621 29.1C24.9987 25.0867 24.1354 21.12 23.2721 17.2C24.2754 17.2 25.2787 17.2 26.2821 17.2C27.3087 17.2 28.3237 17.2 29.3271 17.2Z" fill="white"/>
</svg>
