<svg width="100" height="100" viewBox="0 0 100 100" fill="none" xmlns="http://www.w3.org/2000/svg">
<circle cx="50" cy="50" r="50" fill="#0EA5E9"/>
<path fill-rule="evenodd" clip-rule="evenodd" d="M48 25C48.663 25 49.2989 25.2634 49.7678 25.7322C50.2366 26.2011 50.5 26.837 50.5 27.5V29.905L52.135 29.04C52.7211 28.73 53.4064 28.6656 54.04 28.8609C54.6737 29.0561 55.2038 29.4951 55.5137 30.0812C55.8237 30.6674 55.8882 31.3526 55.6929 31.9863C55.4976 32.6199 55.0586 33.15 54.4725 33.46L50.5 35.56V40.315C52.2875 40.775 53.88 41.715 55.135 42.9925L59.255 40.615L59.0875 36.125C59.0626 35.4623 59.3021 34.8168 59.7531 34.3307C60.2041 33.8445 60.8298 33.5574 61.4925 33.5325C62.1552 33.5076 62.8007 33.7471 63.2868 34.1981C63.773 34.6491 64.0601 35.2748 64.085 35.9375L64.1525 37.7875L66.235 36.585C66.5194 36.4183 66.834 36.3094 67.1607 36.2648C67.4873 36.2201 67.8196 36.2405 68.1384 36.3248C68.4571 36.409 68.756 36.5555 69.0179 36.7558C69.2799 36.9561 69.4996 37.2062 69.6644 37.4917C69.8293 37.7772 69.936 38.0925 69.9785 38.4195C70.021 38.7464 69.9984 39.0785 69.912 39.3967C69.8256 39.7149 69.6772 40.0129 69.4752 40.2734C69.2732 40.534 69.0216 40.752 68.735 40.915L66.6525 42.115L68.22 43.1C68.4981 43.2747 68.739 43.5024 68.9291 43.7702C69.1192 44.0379 69.2546 44.3405 69.3278 44.6607C69.4009 44.9808 69.4102 45.3122 69.3553 45.6359C69.3003 45.9597 69.1822 46.2694 69.0075 46.5475C68.8328 46.8256 68.6051 47.0665 68.3373 47.2566C68.0696 47.4467 67.767 47.5821 67.4468 47.6553C67.1267 47.7284 66.7953 47.7377 66.4716 47.6828C66.1478 47.6278 65.8381 47.5097 65.56 47.335L61.755 44.945L57.6375 47.32C58.1248 49.0726 58.1248 50.9249 57.6375 52.6775L61.755 55.055L65.56 52.665C66.1216 52.3123 66.8003 52.1971 67.4468 52.3447C68.0934 52.4924 68.6548 52.8909 69.0075 53.4525C69.3602 54.0141 69.4754 54.6928 69.3278 55.3393C69.1801 55.9859 68.7816 56.5473 68.22 56.9L66.655 57.8825L68.735 59.085C69.0216 59.248 69.2732 59.466 69.4752 59.7266C69.6772 59.9871 69.8256 60.2851 69.912 60.6033C69.9984 60.9215 70.021 61.2536 69.9785 61.5805C69.936 61.9075 69.8293 62.2228 69.6644 62.5083C69.4996 62.7938 69.2799 63.0439 69.0179 63.2442C68.756 63.4445 68.4571 63.591 68.1384 63.6752C67.8196 63.7595 67.4873 63.7799 67.1607 63.7352C66.834 63.6906 66.5194 63.5817 66.235 63.415L64.155 62.215L64.085 64.0625C64.0601 64.7252 63.773 65.3509 63.2868 65.8019C62.8007 66.2529 62.1552 66.4924 61.4925 66.4675C60.8298 66.4426 60.2041 66.1555 59.7531 65.6693C59.3021 65.1832 59.0626 64.5377 59.0875 63.875L59.255 59.385L55.135 57.0075C53.88 58.2825 52.285 59.225 50.5 59.685V64.44L54.4725 66.54C55.0586 66.85 55.4976 67.3801 55.6929 68.0137C55.8882 68.6474 55.8237 69.3326 55.5137 69.9188C55.2038 70.5049 54.6737 70.9439 54.04 71.1391C53.4064 71.3344 52.7211 71.27 52.135 70.96L50.5 70.095V72.5C50.5 73.163 50.2366 73.7989 49.7678 74.2678C49.2989 74.7366 48.663 75 48 75C47.337 75 46.7011 74.7366 46.2322 74.2678C45.7634 73.7989 45.5 73.163 45.5 72.5V70.095L43.865 70.96C43.5748 71.1135 43.2572 71.2083 42.9303 71.239C42.6034 71.2698 42.2737 71.2358 41.96 71.1391C41.6462 71.0424 41.3546 70.8849 41.1017 70.6755C40.8489 70.4661 40.6397 70.209 40.4863 69.9188C40.3328 69.6285 40.238 69.3109 40.2072 68.9841C40.1765 68.6572 40.2104 68.3275 40.3071 68.0137C40.4038 67.7 40.5613 67.4083 40.7707 67.1555C40.9801 66.9026 41.2373 66.6935 41.5275 66.54L45.5 64.44V59.685C43.7401 59.2296 42.1377 58.303 40.865 57.005L36.745 59.385L36.9125 63.875C36.9246 64.2031 36.872 64.5305 36.7577 64.8383C36.6433 65.1461 36.4695 65.4284 36.246 65.669C36.0226 65.9096 35.754 66.1038 35.4554 66.2406C35.1569 66.3774 34.8344 66.4541 34.5063 66.4663C34.1781 66.4784 33.8508 66.4258 33.543 66.3114C33.2352 66.1971 32.9529 66.0232 32.7123 65.7998C32.4717 65.5763 32.2774 65.3077 32.1406 65.0092C32.0038 64.7107 31.9271 64.3881 31.915 64.06L31.8475 62.2125L29.765 63.4125C29.4804 63.5886 29.1634 63.7057 28.8327 63.757C28.502 63.8082 28.1643 63.7926 27.8398 63.7109C27.5153 63.6293 27.2104 63.4833 26.9433 63.2817C26.6763 63.08 26.4524 62.8268 26.285 62.537C26.1176 62.2473 26.0101 61.9268 25.9688 61.5947C25.9275 61.2626 25.9534 60.9256 26.0447 60.6037C26.1361 60.2818 26.2912 59.9815 26.5008 59.7206C26.7105 59.4597 26.9703 59.2436 27.265 59.085L29.3475 57.8825L27.78 56.8975C27.2333 56.5382 26.8492 55.9789 26.7102 55.3396C26.5711 54.7003 26.6882 54.032 27.0364 53.478C27.3845 52.9241 27.9359 52.5287 28.5722 52.3767C29.2085 52.2247 29.8791 52.3282 30.44 52.665L34.245 55.055L38.3625 52.6775C37.8757 50.9257 37.8757 49.0743 38.3625 47.3225L34.245 44.9475L30.44 47.335C29.8791 47.6718 29.2085 47.7753 28.5722 47.6233C27.9359 47.4713 27.3845 47.0759 27.0364 46.522C26.6882 45.968 26.5711 45.2997 26.7102 44.6604C26.8492 44.0211 27.2333 43.4618 27.78 43.1025L29.3475 42.1175L27.265 40.9175C26.6905 40.586 26.2712 40.0398 26.0993 39.3991C25.9275 38.7585 26.0172 38.0758 26.3488 37.5013C26.6803 36.9267 27.2264 36.5074 27.8671 36.3356C28.5078 36.1638 29.1905 36.2535 29.765 36.585L31.8475 37.7875L31.915 35.9375C31.9399 35.2748 32.227 34.6491 32.7132 34.1981C32.9539 33.9748 33.2363 33.801 33.5441 33.6868C33.852 33.5726 34.1794 33.5202 34.5075 33.5325C34.8356 33.5448 35.1581 33.6216 35.4566 33.7586C35.755 33.8955 36.0236 34.0899 36.2469 34.3307C36.4703 34.5714 36.644 34.8538 36.7582 35.1616C36.8724 35.4695 36.9248 35.7969 36.9125 36.125L36.745 40.615L40.865 42.995C42.1377 41.697 43.7401 40.7704 45.5 40.315V35.56L41.5275 33.46C40.9414 33.15 40.5024 32.6199 40.3071 31.9863C40.1118 31.3526 40.1763 30.6674 40.4863 30.0812C40.7962 29.4951 41.3263 29.0561 41.96 28.8609C42.5936 28.6656 43.2789 28.73 43.865 29.04L45.5 29.905V27.5C45.5 26.837 45.7634 26.2011 46.2322 25.7322C46.7011 25.2634 47.337 25 48 25ZM48 55C49.3261 55 50.5979 54.4732 51.5355 53.5355C52.4732 52.5979 53 51.3261 53 50C53 48.6739 52.4732 47.4021 51.5355 46.4645C50.5979 45.5268 49.3261 45 48 45C46.6739 45 45.4021 45.5268 44.4645 46.4645C43.5268 47.4021 43 48.6739 43 50C43 51.3261 43.5268 52.5979 44.4645 53.5355C45.4021 54.4732 46.6739 55 48 55Z" fill="white"/>
</svg>
