<svg width="40" height="45" viewBox="0 0 40 45" fill="none" xmlns="http://www.w3.org/2000/svg">
<path fill-rule="evenodd" clip-rule="evenodd" d="M25.5459 26.6507C25.3226 26.5333 25.1012 26.4118 24.8819 26.2862C23.9784 25.767 22.8404 26.1433 22.4209 27.1822C21.8429 28.6121 20.1734 28.953 19.1859 27.8421L19.1054 27.7515L14.8624 22.9787L14.7819 22.8876C13.7944 21.7772 14.0969 19.8984 15.3684 19.2482C16.2434 18.801 16.5524 17.5804 16.0949 16.6286C15.5157 15.4228 15.0325 14.1616 14.6509 12.8599C14.2334 11.4373 12.7984 10.6442 11.6124 11.3242L8.48639 13.1158C7.97189 13.4111 7.65289 14.0169 7.70289 14.6638C8.12641 20.111 10.2424 25.2161 13.6792 29.0825C17.1161 32.949 21.654 35.3295 26.4959 35.8059C27.0714 35.8622 27.6104 35.5033 27.8729 34.9239L29.5519 31.2165C30.1639 29.8654 29.4334 28.2313 28.1459 27.7813C27.2574 27.4712 26.3888 27.0935 25.5459 26.6507Z" fill="#EB5757"/>
</svg>
