<svg width="100" height="100" viewBox="0 0 100 100" fill="none" xmlns="http://www.w3.org/2000/svg">
<circle cx="50" cy="50" r="50" fill="#2975E8"/>
<mask id="mask0_94_26" style="mask-type:luminance" maskUnits="userSpaceOnUse" x="20" y="23" width="60" height="58">
<path d="M20 23.3097H80V80.4864H20V23.3097Z" fill="white"/>
</mask>
<g mask="url(#mask0_94_26)">
<path d="M50 70.9569C50.663 70.9569 51.2989 71.2079 51.7678 71.6547C52.2366 72.1015 52.5 72.7075 52.5 73.3393V78.104C52.5 78.7359 52.2366 79.3418 51.7678 79.7886C51.2989 80.2354 50.663 80.4864 50 80.4864C49.337 80.4864 48.7011 80.2354 48.2322 79.7886C47.7634 79.3418 47.5 78.7359 47.5 78.104V73.3393C47.5 72.7075 47.7634 72.1015 48.2322 71.6547C48.7011 71.2079 49.337 70.9569 50 70.9569ZM32.3225 65.3751C32.5531 65.1475 32.829 64.966 33.134 64.8412C33.439 64.7163 33.767 64.6506 34.099 64.6479C34.4309 64.6451 34.7601 64.7054 35.0674 64.8252C35.3746 64.945 35.6538 65.1219 35.8885 65.3455C36.1232 65.5692 36.3089 65.8352 36.4346 66.128C36.5603 66.4208 36.6235 66.7345 36.6206 67.0508C36.6177 67.3672 36.5488 67.6798 36.4178 67.9704C36.2867 68.2611 36.0963 68.524 35.8575 68.7437L32.3225 72.1124C31.851 72.5464 31.2195 72.7865 30.564 72.7811C29.9085 72.7756 29.2815 72.5251 28.818 72.0834C28.3544 71.6417 28.0915 71.0441 28.0858 70.4195C28.0801 69.7948 28.3321 69.1931 28.7875 68.7437L32.3225 65.3751ZM64.1425 65.3751C64.6113 64.9284 65.2471 64.6776 65.91 64.6776C66.5729 64.6776 67.2087 64.9284 67.6775 65.3751L71.2125 68.7437C71.6679 69.1931 71.9199 69.7948 71.9142 70.4195C71.9085 71.0441 71.6456 71.6417 71.182 72.0834C70.7185 72.5251 70.0915 72.7756 69.436 72.7811C68.7805 72.7865 68.149 72.5464 67.6775 72.1124L64.1425 68.7437C63.6738 68.297 63.4105 67.6911 63.4105 67.0594C63.4105 66.4277 63.6738 65.8218 64.1425 65.3751ZM50 37.6039C53.9782 37.6039 57.7936 39.1099 60.6066 41.7905C63.4197 44.4712 65 48.107 65 51.898C65 55.6891 63.4197 59.3249 60.6066 62.0056C57.7936 64.6862 53.9782 66.1922 50 66.1922C46.0218 66.1922 42.2064 64.6862 39.3934 62.0056C36.5804 59.3249 35 55.6891 35 51.898C35 48.107 36.5804 44.4712 39.3934 41.7905C42.2064 39.1099 46.0218 37.6039 50 37.6039ZM27.5 49.5157C28.163 49.5157 28.7989 49.7667 29.2678 50.2135C29.7366 50.6602 30 51.2662 30 51.898C30 52.5299 29.7366 53.1359 29.2678 53.5826C28.7989 54.0294 28.163 54.2804 27.5 54.2804H22.5C21.837 54.2804 21.2011 54.0294 20.7322 53.5826C20.2634 53.1359 20 52.5299 20 51.898C20 51.2662 20.2634 50.6602 20.7322 50.2135C21.2011 49.7667 21.837 49.5157 22.5 49.5157H27.5ZM77.5 49.5157C78.163 49.5157 78.7989 49.7667 79.2678 50.2135C79.7366 50.6602 80 51.2662 80 51.898C80 52.5299 79.7366 53.1359 79.2678 53.5826C78.7989 54.0294 78.163 54.2804 77.5 54.2804H72.5C71.837 54.2804 71.2011 54.0294 70.7322 53.5826C70.2634 53.1359 70 52.5299 70 51.898C70 51.2662 70.2634 50.6602 70.7322 50.2135C71.2011 49.7667 71.837 49.5157 72.5 49.5157H77.5ZM28.7875 31.6837C29.2563 31.2371 29.8921 30.9862 30.555 30.9862C31.2179 30.9862 31.8537 31.2371 32.3225 31.6837L35.8575 35.0524C36.0963 35.2721 36.2867 35.535 36.4178 35.8257C36.5488 36.1163 36.6177 36.4289 36.6206 36.7453C36.6235 37.0616 36.5603 37.3753 36.4346 37.6681C36.3089 37.9609 36.1232 38.2269 35.8885 38.4505C35.6538 38.6742 35.3746 38.8511 35.0674 38.9709C34.7601 39.0907 34.4309 39.151 34.099 39.1482C33.767 39.1455 33.439 39.0798 33.134 38.9549C32.829 38.8301 32.5531 38.6486 32.3225 38.421L28.7875 35.0524C28.3188 34.6056 28.0555 33.9997 28.0555 33.368C28.0555 32.7363 28.3188 32.1305 28.7875 31.6837ZM67.6775 31.6837C68.149 31.2497 68.7805 31.0096 69.436 31.015C70.0915 31.0205 70.7185 31.271 71.182 31.7127C71.6456 32.1544 71.9085 32.752 71.9142 33.3766C71.9199 34.0013 71.6679 34.603 71.2125 35.0524L67.6775 38.421C67.4469 38.6486 67.171 38.8301 66.866 38.9549C66.561 39.0798 66.233 39.1455 65.901 39.1482C65.5691 39.151 65.2399 39.0907 64.9326 38.9709C64.6254 38.8511 64.3462 38.6742 64.1115 38.4505C63.8768 38.2269 63.6911 37.9609 63.5654 37.6681C63.4397 37.3753 63.3765 37.0616 63.3794 36.7453C63.3823 36.4289 63.4512 36.1163 63.5822 35.8257C63.7133 35.535 63.9037 35.2721 64.1425 35.0524L67.6775 31.6837ZM50 23.3097C50.663 23.3097 51.2989 23.5607 51.7678 24.0075C52.2366 24.4542 52.5 25.0602 52.5 25.6921V30.4568C52.5 31.0886 52.2366 31.6946 51.7678 32.1414C51.2989 32.5881 50.663 32.8391 50 32.8391C49.337 32.8391 48.7011 32.5881 48.2322 32.1414C47.7634 31.6946 47.5 31.0886 47.5 30.4568V25.6921C47.5 25.0602 47.7634 24.4542 48.2322 24.0075C48.7011 23.5607 49.337 23.3097 50 23.3097Z" fill="white"/>
</g>
</svg>
